<svg width="220" height="180" viewBox="0 0 220 180" fill="none" xmlns="http://www.w3.org/2000/svg">
<rect y="14" width="220" height="122" rx="10" fill="#3F2DAA"/>
<path d="M61.492 70.864C61.492 72.328 61.156 73.672 60.484 74.896C59.812 76.096 58.78 77.068 57.388 77.812C55.996 78.556 54.268 78.928 52.204 78.928H48.388V88H42.232V62.728H52.204C54.22 62.728 55.924 63.076 57.316 63.772C58.708 64.468 59.752 65.428 60.448 66.652C61.144 67.876 61.492 69.28 61.492 70.864ZM51.736 74.032C52.912 74.032 53.788 73.756 54.364 73.204C54.94 72.652 55.228 71.872 55.228 70.864C55.228 69.856 54.94 69.076 54.364 68.524C53.788 67.972 52.912 67.696 51.736 67.696H48.388V74.032H51.736ZM63.4728 77.92C63.4728 75.856 63.8568 74.044 64.6248 72.484C65.4168 70.924 66.4848 69.724 67.8288 68.884C69.1728 68.044 70.6728 67.624 72.3288 67.624C73.7448 67.624 74.9808 67.912 76.0368 68.488C77.1168 69.064 77.9448 69.82 78.5208 70.756V67.912H84.6768V88H78.5208V85.156C77.9208 86.092 77.0808 86.848 76.0008 87.424C74.9448 88 73.7088 88.288 72.2928 88.288C70.6608 88.288 69.1728 87.868 67.8288 87.028C66.4848 86.164 65.4168 84.952 64.6248 83.392C63.8568 81.808 63.4728 79.984 63.4728 77.92ZM78.5208 77.956C78.5208 76.42 78.0888 75.208 77.2248 74.32C76.3848 73.432 75.3528 72.988 74.1288 72.988C72.9048 72.988 71.8608 73.432 70.9968 74.32C70.1568 75.184 69.7368 76.384 69.7368 77.92C69.7368 79.456 70.1568 80.68 70.9968 81.592C71.8608 82.48 72.9048 82.924 74.1288 82.924C75.3528 82.924 76.3848 82.48 77.2248 81.592C78.0888 80.704 78.5208 79.492 78.5208 77.956ZM101.406 88L95.2864 79.576V88H89.1304V61.36H95.2864V76.084L101.37 67.912H108.966L100.614 77.992L109.038 88H101.406ZM120.528 88.288C118.56 88.288 116.784 87.868 115.2 87.028C113.64 86.188 112.404 84.988 111.492 83.428C110.604 81.868 110.16 80.044 110.16 77.956C110.16 75.892 110.616 74.08 111.528 72.52C112.44 70.936 113.688 69.724 115.272 68.884C116.856 68.044 118.632 67.624 120.6 67.624C122.568 67.624 124.344 68.044 125.928 68.884C127.512 69.724 128.76 70.936 129.672 72.52C130.584 74.08 131.04 75.892 131.04 77.956C131.04 80.02 130.572 81.844 129.636 83.428C128.724 84.988 127.464 86.188 125.856 87.028C124.272 87.868 122.496 88.288 120.528 88.288ZM120.528 82.96C121.704 82.96 122.7 82.528 123.516 81.664C124.356 80.8 124.776 79.564 124.776 77.956C124.776 76.348 124.368 75.112 123.552 74.248C122.76 73.384 121.776 72.952 120.6 72.952C119.4 72.952 118.404 73.384 117.612 74.248C116.82 75.088 116.424 76.324 116.424 77.956C116.424 79.564 116.808 80.8 117.576 81.664C118.368 82.528 119.352 82.96 120.528 82.96ZM133.082 77.92C133.082 75.856 133.466 74.044 134.234 72.484C135.026 70.924 136.094 69.724 137.438 68.884C138.782 68.044 140.282 67.624 141.938 67.624C143.258 67.624 144.458 67.9 145.538 68.452C146.642 69.004 147.506 69.748 148.13 70.684V61.36H154.286V88H148.13V85.12C147.554 86.08 146.726 86.848 145.646 87.424C144.59 88 143.354 88.288 141.938 88.288C140.282 88.288 138.782 87.868 137.438 87.028C136.094 86.164 135.026 84.952 134.234 83.392C133.466 81.808 133.082 79.984 133.082 77.92ZM148.13 77.956C148.13 76.42 147.698 75.208 146.834 74.32C145.994 73.432 144.962 72.988 143.738 72.988C142.514 72.988 141.47 73.432 140.606 74.32C139.766 75.184 139.346 76.384 139.346 77.92C139.346 79.456 139.766 80.68 140.606 81.592C141.47 82.48 142.514 82.924 143.738 82.924C144.962 82.924 145.994 82.48 146.834 81.592C147.698 80.704 148.13 79.492 148.13 77.956ZM177.676 77.632C177.676 78.208 177.64 78.808 177.568 79.432H163.636C163.732 80.68 164.128 81.64 164.824 82.312C165.544 82.96 166.42 83.284 167.452 83.284C168.988 83.284 170.056 82.636 170.656 81.34H177.208C176.872 82.66 176.26 83.848 175.372 84.904C174.508 85.96 173.416 86.788 172.096 87.388C170.776 87.988 169.3 88.288 167.668 88.288C165.7 88.288 163.948 87.868 162.412 87.028C160.876 86.188 159.676 84.988 158.812 83.428C157.948 81.868 157.516 80.044 157.516 77.956C157.516 75.868 157.936 74.044 158.776 72.484C159.64 70.924 160.84 69.724 162.376 68.884C163.912 68.044 165.676 67.624 167.668 67.624C169.612 67.624 171.34 68.032 172.852 68.848C174.364 69.664 175.54 70.828 176.38 72.34C177.244 73.852 177.676 75.616 177.676 77.632ZM171.376 76.012C171.376 74.956 171.016 74.116 170.296 73.492C169.576 72.868 168.676 72.556 167.596 72.556C166.564 72.556 165.688 72.856 164.968 73.456C164.272 74.056 163.84 74.908 163.672 76.012H171.376Z" fill="#D9D3FF"/>
</svg>
