<svg width="288" height="180" viewBox="0 0 288 180" fill="none" xmlns="http://www.w3.org/2000/svg">
<rect y="7" width="288" height="166" rx="10" fill="#3F2DAA"/>
<path d="M95.492 85.864C95.492 87.328 95.156 88.672 94.484 89.896C93.812 91.096 92.78 92.068 91.388 92.812C89.996 93.556 88.268 93.928 86.204 93.928H82.388V103H76.232V77.728H86.204C88.22 77.728 89.924 78.076 91.316 78.772C92.708 79.468 93.752 80.428 94.448 81.652C95.144 82.876 95.492 84.28 95.492 85.864ZM85.736 89.032C86.912 89.032 87.788 88.756 88.364 88.204C88.94 87.652 89.228 86.872 89.228 85.864C89.228 84.856 88.94 84.076 88.364 83.524C87.788 82.972 86.912 82.696 85.736 82.696H82.388V89.032H85.736ZM97.4728 92.92C97.4728 90.856 97.8568 89.044 98.6248 87.484C99.4168 85.924 100.485 84.724 101.829 83.884C103.173 83.044 104.673 82.624 106.329 82.624C107.745 82.624 108.981 82.912 110.037 83.488C111.117 84.064 111.945 84.82 112.521 85.756V82.912H118.677V103H112.521V100.156C111.921 101.092 111.081 101.848 110.001 102.424C108.945 103 107.709 103.288 106.293 103.288C104.661 103.288 103.173 102.868 101.829 102.028C100.485 101.164 99.4168 99.952 98.6248 98.392C97.8568 96.808 97.4728 94.984 97.4728 92.92ZM112.521 92.956C112.521 91.42 112.089 90.208 111.225 89.32C110.385 88.432 109.353 87.988 108.129 87.988C106.905 87.988 105.861 88.432 104.997 89.32C104.157 90.184 103.737 91.384 103.737 92.92C103.737 94.456 104.157 95.68 104.997 96.592C105.861 97.48 106.905 97.924 108.129 97.924C109.353 97.924 110.385 97.48 111.225 96.592C112.089 95.704 112.521 94.492 112.521 92.956ZM135.406 103L129.286 94.576V103H123.13V76.36H129.286V91.084L135.37 82.912H142.966L134.614 92.992L143.038 103H135.406ZM154.528 103.288C152.56 103.288 150.784 102.868 149.2 102.028C147.64 101.188 146.404 99.988 145.492 98.428C144.604 96.868 144.16 95.044 144.16 92.956C144.16 90.892 144.616 89.08 145.528 87.52C146.44 85.936 147.688 84.724 149.272 83.884C150.856 83.044 152.632 82.624 154.6 82.624C156.568 82.624 158.344 83.044 159.928 83.884C161.512 84.724 162.76 85.936 163.672 87.52C164.584 89.08 165.04 90.892 165.04 92.956C165.04 95.02 164.572 96.844 163.636 98.428C162.724 99.988 161.464 101.188 159.856 102.028C158.272 102.868 156.496 103.288 154.528 103.288ZM154.528 97.96C155.704 97.96 156.7 97.528 157.516 96.664C158.356 95.8 158.776 94.564 158.776 92.956C158.776 91.348 158.368 90.112 157.552 89.248C156.76 88.384 155.776 87.952 154.6 87.952C153.4 87.952 152.404 88.384 151.612 89.248C150.82 90.088 150.424 91.324 150.424 92.956C150.424 94.564 150.808 95.8 151.576 96.664C152.368 97.528 153.352 97.96 154.528 97.96ZM167.082 92.92C167.082 90.856 167.466 89.044 168.234 87.484C169.026 85.924 170.094 84.724 171.438 83.884C172.782 83.044 174.282 82.624 175.938 82.624C177.258 82.624 178.458 82.9 179.538 83.452C180.642 84.004 181.506 84.748 182.13 85.684V76.36H188.286V103H182.13V100.12C181.554 101.08 180.726 101.848 179.646 102.424C178.59 103 177.354 103.288 175.938 103.288C174.282 103.288 172.782 102.868 171.438 102.028C170.094 101.164 169.026 99.952 168.234 98.392C167.466 96.808 167.082 94.984 167.082 92.92ZM182.13 92.956C182.13 91.42 181.698 90.208 180.834 89.32C179.994 88.432 178.962 87.988 177.738 87.988C176.514 87.988 175.47 88.432 174.606 89.32C173.766 90.184 173.346 91.384 173.346 92.92C173.346 94.456 173.766 95.68 174.606 96.592C175.47 97.48 176.514 97.924 177.738 97.924C178.962 97.924 179.994 97.48 180.834 96.592C181.698 95.704 182.13 94.492 182.13 92.956ZM211.676 92.632C211.676 93.208 211.64 93.808 211.568 94.432H197.636C197.732 95.68 198.128 96.64 198.824 97.312C199.544 97.96 200.42 98.284 201.452 98.284C202.988 98.284 204.056 97.636 204.656 96.34H211.208C210.872 97.66 210.26 98.848 209.372 99.904C208.508 100.96 207.416 101.788 206.096 102.388C204.776 102.988 203.3 103.288 201.668 103.288C199.7 103.288 197.948 102.868 196.412 102.028C194.876 101.188 193.676 99.988 192.812 98.428C191.948 96.868 191.516 95.044 191.516 92.956C191.516 90.868 191.936 89.044 192.776 87.484C193.64 85.924 194.84 84.724 196.376 83.884C197.912 83.044 199.676 82.624 201.668 82.624C203.612 82.624 205.34 83.032 206.852 83.848C208.364 84.664 209.54 85.828 210.38 87.34C211.244 88.852 211.676 90.616 211.676 92.632ZM205.376 91.012C205.376 89.956 205.016 89.116 204.296 88.492C203.576 87.868 202.676 87.556 201.596 87.556C200.564 87.556 199.688 87.856 198.968 88.456C198.272 89.056 197.84 89.908 197.672 91.012H205.376Z" fill="#D9D3FF"/>
</svg>
