<svg xmlns="http://www.w3.org/2000/svg" width="540" height="420" fill="none" xmlns:v="https://vecta.io/nano"><rect width="540" height="420" rx="5" fill="#3f2daa"/><rect x="114" y="98" width="423" height="322" rx="5" fill="#4b31e8"/><g fill="#5e44ff"><circle cx="62.5" cy="363.5" r="7.5"/><circle cx="10.5" cy="386.5" r="7.5"/><circle cx="10.5" cy="363.5" r="7.5"/><circle cx="36.5" cy="386.5" r="7.5"/><circle cx="36.5" cy="363.5" r="7.5"/><circle cx="36.5" cy="409.5" r="7.5"/><circle cx="10.5" cy="409.5" r="7.5"/><circle cx="62.5" cy="409.5" r="7.5"/><circle cx="62.5" cy="386.5" r="7.5"/><circle cx="529.5" cy="56.5" r="7.5"/><circle cx="477.5" cy="56.5" r="7.5"/><circle cx="503.5" cy="56.5" r="7.5"/><circle cx="477.5" cy="10.5" r="7.5"/><circle cx="477.5" cy="33.5" r="7.5"/><circle cx="503.5" cy="10.5" r="7.5"/><circle cx="503.5" cy="33.5" r="7.5"/><circle cx="529.5" cy="10.5" r="7.5"/><circle cx="529.5" cy="33.5" r="7.5"/></g><path d="M188.412 172.728v4.932h-6.696V198h-6.156v-20.34h-6.696v-4.932h19.548zm12.234 25.56c-1.968 0-3.744-.42-5.328-1.26-1.56-.84-2.796-2.04-3.708-3.6-.888-1.56-1.332-3.384-1.332-5.472 0-2.064.456-3.876 1.368-5.436.912-1.584 2.16-2.796 3.744-3.636s3.36-1.26 5.328-1.26 3.744.42 5.328 1.26 2.832 2.052 3.744 3.636c.912 1.56 1.368 3.372 1.368 5.436s-.468 3.888-1.404 5.472c-.912 1.56-2.172 2.76-3.78 3.6-1.584.84-3.36 1.26-5.328 1.26zm0-5.328a3.95 3.95 0 0 0 2.988-1.296c.84-.864 1.26-2.1 1.26-3.708s-.408-2.844-1.224-3.708a3.84 3.84 0 0 0-2.952-1.296c-1.2 0-2.196.432-2.988 1.296-.792.84-1.188 2.076-1.188 3.708 0 1.608.384 2.844 1.152 3.708a3.84 3.84 0 0 0 2.952 1.296zm22.921 5.328c-1.968 0-3.744-.42-5.328-1.26-1.56-.84-2.796-2.04-3.708-3.6-.888-1.56-1.332-3.384-1.332-5.472 0-2.064.456-3.876 1.368-5.436.912-1.584 2.16-2.796 3.744-3.636s3.36-1.26 5.328-1.26 3.744.42 5.328 1.26 2.832 2.052 3.744 3.636c.912 1.56 1.368 3.372 1.368 5.436s-.468 3.888-1.404 5.472c-.912 1.56-2.172 2.76-3.78 3.6-1.584.84-3.36 1.26-5.328 1.26zm0-5.328a3.95 3.95 0 0 0 2.988-1.296c.84-.864 1.26-2.1 1.26-3.708s-.408-2.844-1.224-3.708a3.84 3.84 0 0 0-2.952-1.296c-1.2 0-2.196.432-2.988 1.296-.792.84-1.188 2.076-1.188 3.708 0 1.608.384 2.844 1.152 3.708a3.84 3.84 0 0 0 2.952 1.296zm19.934-21.6V198h-6.156v-26.64h6.156zm12.633 26.928c-1.752 0-3.312-.3-4.68-.9s-2.448-1.416-3.24-2.448c-.792-1.056-1.236-2.232-1.332-3.528h6.084c.072.696.396 1.26.972 1.692s1.284.648 2.124.648c.768 0 1.356-.144 1.764-.432.432-.312.648-.708.648-1.188 0-.576-.3-.996-.9-1.26-.6-.288-1.572-.6-2.916-.936-1.44-.336-2.64-.684-3.6-1.044-.96-.384-1.788-.972-2.484-1.764-.696-.816-1.044-1.908-1.044-3.276 0-1.152.312-2.196.936-3.132.648-.96 1.584-1.716 2.808-2.268 1.248-.552 2.724-.828 4.428-.828 2.52 0 4.5.624 5.94 1.872 1.464 1.248 2.304 2.904 2.52 4.968h-5.688c-.096-.696-.408-1.248-.936-1.656-.504-.408-1.176-.612-2.016-.612-.72 0-1.272.144-1.656.432-.384.264-.576.636-.576 1.116 0 .576.3 1.008.9 1.296.624.288 1.584.576 2.88.864 1.488.384 2.7.768 3.636 1.152.936.36 1.752.96 2.448 1.8.72.816 1.092 1.92 1.116 3.312 0 1.176-.336 2.232-1.008 3.168-.648.912-1.596 1.632-2.844 2.16-1.224.528-2.652.792-4.284.792zm32.42-.288l-5.256-9.54h-1.476V198h-6.156v-25.272h10.332c1.992 0 3.684.348 5.076 1.044 1.416.696 2.472 1.656 3.168 2.88.696 1.2 1.044 2.544 1.044 4.032 0 1.68-.48 3.18-1.44 4.5-.936 1.32-2.328 2.256-4.176 2.808L295.502 198h-6.948zm-6.732-13.896h3.816c1.128 0 1.968-.276 2.52-.828.576-.552.864-1.332.864-2.34 0-.96-.288-1.716-.864-2.268-.552-.552-1.392-.828-2.52-.828h-3.816v6.264zm36.264 3.528c0 .576-.036 1.176-.108 1.8h-13.932c.096 1.248.492 2.208 1.188 2.88.72.648 1.596.972 2.628.972 1.536 0 2.604-.648 3.204-1.944h6.552c-.336 1.32-.948 2.508-1.836 3.564-.864 1.056-1.956 1.884-3.276 2.484s-2.796.9-4.428.9c-1.968 0-3.72-.42-5.256-1.26a8.96 8.96 0 0 1-3.6-3.6c-.864-1.56-1.296-3.384-1.296-5.472s.42-3.912 1.26-5.472a8.96 8.96 0 0 1 3.6-3.6c1.536-.84 3.3-1.26 5.292-1.26 1.944 0 3.672.408 5.184 1.224a8.67 8.67 0 0 1 3.528 3.492c.864 1.512 1.296 3.276 1.296 5.292zm-6.3-1.62c0-1.056-.36-1.896-1.08-2.52s-1.62-.936-2.7-.936c-1.032 0-1.908.3-2.628.9-.696.6-1.128 1.452-1.296 2.556h7.704zm8.324 1.944c0-2.088.42-3.912 1.26-5.472.864-1.56 2.052-2.76 3.564-3.6 1.536-.84 3.288-1.26 5.256-1.26 2.52 0 4.62.66 6.3 1.98 1.704 1.32 2.82 3.18 3.348 5.58h-6.552c-.552-1.536-1.62-2.304-3.204-2.304a3.21 3.21 0 0 0-2.7 1.332c-.672.864-1.008 2.112-1.008 3.744s.336 2.892 1.008 3.78c.672.864 1.572 1.296 2.7 1.296 1.584 0 2.652-.768 3.204-2.304h6.552c-.528 2.352-1.644 4.2-3.348 5.544s-3.804 2.016-6.3 2.016c-1.968 0-3.72-.42-5.256-1.26-1.512-.84-2.7-2.04-3.564-3.6-.84-1.56-1.26-3.384-1.26-5.472zm32.164 10.332c-1.968 0-3.744-.42-5.328-1.26-1.56-.84-2.796-2.04-3.708-3.6-.888-1.56-1.332-3.384-1.332-5.472 0-2.064.456-3.876 1.368-5.436.912-1.584 2.16-2.796 3.744-3.636s3.36-1.26 5.328-1.26 3.744.42 5.328 1.26 2.832 2.052 3.744 3.636c.912 1.56 1.368 3.372 1.368 5.436s-.468 3.888-1.404 5.472c-.912 1.56-2.172 2.76-3.78 3.6-1.584.84-3.36 1.26-5.328 1.26zm0-5.328a3.95 3.95 0 0 0 2.988-1.296c.84-.864 1.26-2.1 1.26-3.708s-.408-2.844-1.224-3.708a3.84 3.84 0 0 0-2.952-1.296c-1.2 0-2.196.432-2.988 1.296-.792.84-1.188 2.076-1.188 3.708 0 1.608.384 2.844 1.152 3.708a3.84 3.84 0 0 0 2.952 1.296zm26.018-15.264c2.352 0 4.224.768 5.616 2.304 1.416 1.512 2.124 3.6 2.124 6.264V198h-6.12v-10.908c0-1.344-.348-2.388-1.044-3.132s-1.632-1.116-2.808-1.116-2.112.372-2.808 1.116-1.044 1.788-1.044 3.132V198h-6.156v-20.088h6.156v2.664c.624-.888 1.464-1.584 2.52-2.088 1.056-.528 2.244-.792 3.564-.792zm40.167.216l-12.6 29.628h-6.624l4.608-10.224-8.172-19.404h6.876l4.644 12.564 4.608-12.564h6.66zm1.002 10.008c0-2.064.384-3.876 1.152-5.436.792-1.56 1.86-2.76 3.204-3.6s2.844-1.26 4.5-1.26c1.416 0 2.652.288 3.708.864 1.08.576 1.908 1.332 2.484 2.268v-2.844h6.156V198h-6.156v-2.844c-.6.936-1.44 1.692-2.52 2.268-1.056.576-2.292.864-3.708.864-1.632 0-3.12-.42-4.464-1.26-1.344-.864-2.412-2.076-3.204-3.636-.768-1.584-1.152-3.408-1.152-5.472zm15.048.036c0-1.536-.432-2.748-1.296-3.636-.84-.888-1.872-1.332-3.096-1.332s-2.268.444-3.132 1.332c-.84.864-1.26 2.064-1.26 3.6s.42 2.76 1.26 3.672c.864.888 1.908 1.332 3.132 1.332s2.256-.444 3.096-1.332c.864-.888 1.296-2.1 1.296-3.636zm22.85-10.26c2.352 0 4.224.768 5.616 2.304 1.416 1.512 2.124 3.6 2.124 6.264V198h-6.12v-10.908c0-1.344-.348-2.388-1.044-3.132s-1.632-1.116-2.808-1.116-2.112.372-2.808 1.116-1.044 1.788-1.044 3.132V198h-6.156v-20.088h6.156v2.664c.624-.888 1.464-1.584 2.52-2.088 1.056-.528 2.244-.792 3.564-.792zm19.65-.072c1.416 0 2.652.288 3.708.864 1.08.576 1.908 1.332 2.484 2.268v-2.844h6.156v20.052c0 1.848-.372 3.516-1.116 5.004-.72 1.512-1.836 2.712-3.348 3.6-1.488.888-3.348 1.332-5.58 1.332-2.976 0-5.388-.708-7.236-2.124-1.848-1.392-2.904-3.288-3.168-5.688h6.084c.192.768.648 1.368 1.368 1.8.72.456 1.608.684 2.664.684 1.272 0 2.28-.372 3.024-1.116.768-.72 1.152-1.884 1.152-3.492v-2.844c-.6.936-1.428 1.704-2.484 2.304-1.056.576-2.292.864-3.708.864-1.656 0-3.156-.42-4.5-1.26-1.344-.864-2.412-2.076-3.204-3.636-.768-1.584-1.152-3.408-1.152-5.472s.384-3.876 1.152-5.436c.792-1.56 1.86-2.76 3.204-3.6s2.844-1.26 4.5-1.26zm6.192 10.332c0-1.536-.432-2.748-1.296-3.636-.84-.888-1.872-1.332-3.096-1.332s-2.268.444-3.132 1.332c-.84.864-1.26 2.064-1.26 3.6s.42 2.76 1.26 3.672c.864.888 1.908 1.332 3.132 1.332s2.256-.444 3.096-1.332c.864-.888 1.296-2.1 1.296-3.636zm-284.133 43.956L193.632 252h-6.804l-3.168-13.032L180.384 252h-6.768l-5.472-20.088h6.156l2.844 14.364 3.384-14.364h6.516l3.42 14.292 2.808-14.292h5.796zm1.124 10.008c0-2.064.384-3.876 1.152-5.436.792-1.56 1.86-2.76 3.204-3.6s2.844-1.26 4.5-1.26c1.416 0 2.652.288 3.708.864 1.08.576 1.908 1.332 2.484 2.268v-2.844h6.156V252h-6.156v-2.844c-.6.936-1.44 1.692-2.52 2.268-1.056.576-2.292.864-3.708.864-1.632 0-3.12-.42-4.464-1.26-1.344-.864-2.412-2.076-3.204-3.636-.768-1.584-1.152-3.408-1.152-5.472zm15.048.036c0-1.536-.432-2.748-1.296-3.636-.84-.888-1.872-1.332-3.096-1.332s-2.268.444-3.132 1.332c-.84.864-1.26 2.064-1.26 3.6s.42 2.76 1.26 3.672c.864.888 1.908 1.332 3.132 1.332s2.256-.444 3.096-1.332c.864-.888 1.296-2.1 1.296-3.636zm13.669-12.132c-1.08 0-1.968-.312-2.664-.936a3.17 3.17 0 0 1-1.008-2.376c0-.96.336-1.752 1.008-2.376.696-.648 1.584-.972 2.664-.972 1.056 0 1.92.324 2.592.972.696.624 1.044 1.416 1.044 2.376a3.12 3.12 0 0 1-1.044 2.376c-.672.624-1.536.936-2.592.936zm3.096 24.768c0 2.472-.624 4.248-1.872 5.328-1.248 1.104-2.988 1.656-5.22 1.656h-2.412v-5.22h1.476c.672 0 1.152-.132 1.44-.396s.432-.696.432-1.296v-22.752h6.156v22.68zm7.522-24.768c-1.08 0-1.968-.312-2.664-.936a3.17 3.17 0 0 1-1.008-2.376c0-.96.336-1.752 1.008-2.376.696-.648 1.584-.972 2.664-.972 1.056 0 1.92.324 2.592.972.696.624 1.044 1.416 1.044 2.376a3.12 3.12 0 0 1-1.044 2.376c-.672.624-1.536.936-2.592.936zm3.06 2.088V252h-6.156v-20.088h6.156zm10.617 2.844c.576-.936 1.404-1.692 2.484-2.268s2.316-.864 3.708-.864c1.656 0 3.156.42 4.5 1.26s2.4 2.04 3.168 3.6c.792 1.56 1.188 3.372 1.188 5.436s-.396 3.888-1.188 5.472c-.768 1.56-1.824 2.772-3.168 3.636-1.344.84-2.844 1.26-4.5 1.26-1.416 0-2.652-.276-3.708-.828-1.056-.576-1.884-1.332-2.484-2.268V252h-6.156v-26.64h6.156v9.396zm8.784 7.164c0-1.536-.432-2.736-1.296-3.6-.84-.888-1.884-1.332-3.132-1.332-1.224 0-2.268.444-3.132 1.332-.84.888-1.26 2.1-1.26 3.636s.42 2.748 1.26 3.636c.864.888 1.908 1.332 3.132 1.332s2.268-.444 3.132-1.332c.864-.912 1.296-2.136 1.296-3.672zM293.763 252l-8.496-11.16V252h-6.156v-25.272h6.156v11.088l8.424-11.088h7.236l-9.792 12.384L301.287 252h-7.524zm9.225-10.08c0-2.064.384-3.876 1.152-5.436.792-1.56 1.86-2.76 3.204-3.6s2.844-1.26 4.5-1.26c1.416 0 2.652.288 3.708.864 1.08.576 1.908 1.332 2.484 2.268v-2.844h6.156V252h-6.156v-2.844c-.6.936-1.44 1.692-2.52 2.268-1.056.576-2.292.864-3.708.864-1.632 0-3.12-.42-4.464-1.26-1.344-.864-2.412-2.076-3.204-3.636-.768-1.584-1.152-3.408-1.152-5.472zm15.048.036c0-1.536-.432-2.748-1.296-3.636-.84-.888-1.872-1.332-3.096-1.332s-2.268.444-3.132 1.332c-.84.864-1.26 2.064-1.26 3.6s.42 2.76 1.26 3.672c.864.888 1.908 1.332 3.132 1.332s2.256-.444 3.096-1.332c.864-.888 1.296-2.1 1.296-3.636zm36.242-10.26c2.496 0 4.476.756 5.94 2.268 1.488 1.512 2.232 3.612 2.232 6.3V252h-6.12v-10.908c0-1.296-.348-2.292-1.044-2.988-.672-.72-1.608-1.08-2.808-1.08s-2.148.36-2.844 1.08c-.672.696-1.008 1.692-1.008 2.988V252h-6.12v-10.908c0-1.296-.348-2.292-1.044-2.988-.672-.72-1.608-1.08-2.808-1.08s-2.148.36-2.844 1.08c-.672.696-1.008 1.692-1.008 2.988V252h-6.156v-20.088h6.156v2.52c.624-.84 1.44-1.5 2.448-1.98 1.008-.504 2.148-.756 3.42-.756 1.512 0 2.856.324 4.032.972 1.2.648 2.136 1.572 2.808 2.772.696-1.104 1.644-2.004 2.844-2.7s2.508-1.044 3.924-1.044zm32.313.216V252h-6.156v-2.736c-.624.888-1.476 1.608-2.556 2.16-1.056.528-2.232.792-3.528.792-1.536 0-2.892-.336-4.068-1.008-1.176-.696-2.088-1.692-2.736-2.988s-.972-2.82-.972-4.572v-11.736h6.12v10.908c0 1.344.348 2.388 1.044 3.132s1.632 1.116 2.808 1.116c1.2 0 2.148-.372 2.844-1.116s1.044-1.788 1.044-3.132v-10.908h6.156zm11.007 7.416c0-2.496.54-4.716 1.62-6.66 1.08-1.968 2.58-3.492 4.5-4.572 1.944-1.104 4.14-1.656 6.588-1.656 3 0 5.568.792 7.704 2.376s3.564 3.744 4.284 6.48h-6.768c-.504-1.056-1.224-1.86-2.16-2.412-.912-.552-1.956-.828-3.132-.828-1.896 0-3.432.66-4.608 1.98s-1.764 3.084-1.764 5.292.588 3.972 1.764 5.292 2.712 1.98 4.608 1.98c1.176 0 2.22-.276 3.132-.828.936-.552 1.656-1.356 2.16-2.412h6.768c-.72 2.736-2.148 4.896-4.284 6.48-2.136 1.56-4.704 2.34-7.704 2.34-2.448 0-4.644-.54-6.588-1.62a11.77 11.77 0 0 1-4.5-4.572c-1.08-1.944-1.62-4.164-1.62-6.66zm37.61 12.96c-1.968 0-3.744-.42-5.328-1.26-1.56-.84-2.796-2.04-3.708-3.6-.888-1.56-1.332-3.384-1.332-5.472 0-2.064.456-3.876 1.368-5.436.912-1.584 2.16-2.796 3.744-3.636s3.36-1.26 5.328-1.26 3.744.42 5.328 1.26 2.832 2.052 3.744 3.636c.912 1.56 1.368 3.372 1.368 5.436s-.468 3.888-1.404 5.472c-.912 1.56-2.172 2.76-3.78 3.6-1.584.84-3.36 1.26-5.328 1.26zm0-5.328a3.95 3.95 0 0 0 2.988-1.296c.84-.864 1.26-2.1 1.26-3.708s-.408-2.844-1.224-3.708a3.84 3.84 0 0 0-2.952-1.296c-1.2 0-2.196.432-2.988 1.296-.792.84-1.188 2.076-1.188 3.708 0 1.608.384 2.844 1.152 3.708a3.84 3.84 0 0 0 2.952 1.296zm19.934-12.204c.576-.936 1.404-1.692 2.484-2.268s2.316-.864 3.708-.864c1.656 0 3.156.42 4.5 1.26s2.4 2.04 3.168 3.6c.792 1.56 1.188 3.372 1.188 5.436s-.396 3.888-1.188 5.472c-.768 1.56-1.824 2.772-3.168 3.636-1.344.84-2.844 1.26-4.5 1.26-1.416 0-2.652-.276-3.708-.828-1.056-.576-1.884-1.332-2.484-2.268V252h-6.156v-26.64h6.156v9.396zm8.784 7.164c0-1.536-.432-2.736-1.296-3.6-.84-.888-1.884-1.332-3.132-1.332-1.224 0-2.268.444-3.132 1.332-.84.888-1.26 2.1-1.26 3.636s.42 2.748 1.26 3.636c.864.888 1.908 1.332 3.132 1.332s2.268-.444 3.132-1.332c.864-.912 1.296-2.136 1.296-3.672zm8.27 0c0-2.064.384-3.876 1.152-5.436.792-1.56 1.86-2.76 3.204-3.6s2.844-1.26 4.5-1.26c1.416 0 2.652.288 3.708.864 1.08.576 1.908 1.332 2.484 2.268v-2.844h6.156V252h-6.156v-2.844c-.6.936-1.44 1.692-2.52 2.268-1.056.576-2.292.864-3.708.864-1.632 0-3.12-.42-4.464-1.26-1.344-.864-2.412-2.076-3.204-3.636-.768-1.584-1.152-3.408-1.152-5.472zm15.048.036c0-1.536-.432-2.748-1.296-3.636-.84-.888-1.872-1.332-3.096-1.332s-2.268.444-3.132 1.332c-.84.864-1.26 2.064-1.26 3.6s.42 2.76 1.26 3.672c.864.888 1.908 1.332 3.132 1.332s2.256-.444 3.096-1.332c.864-.888 1.296-2.1 1.296-3.636zm-336.748-59.62h-44.928v19.872c1.92-2.112 4.608-3.84 8.064-5.184s7.2-2.016 11.232-2.016c7.2 0 13.152 1.632 17.856 4.896 4.8 3.264 8.304 7.488 10.512 12.672s3.312 10.8 3.312 16.848c0 11.232-3.168 20.16-9.504 26.784-6.336 6.528-15.264 9.792-26.784 9.792-7.68 0-14.352-1.296-20.016-3.888-5.664-2.688-10.032-6.384-13.104-11.088s-4.752-10.128-5.04-16.272h24.048c.576 2.976 1.968 5.472 4.176 7.488 2.208 1.92 5.232 2.88 9.072 2.88 4.512 0 7.872-1.44 10.08-4.32s3.312-6.72 3.312-11.52c0-4.704-1.152-8.304-3.456-10.8s-5.664-3.744-10.08-3.744c-3.264 0-5.952.816-8.064 2.448-2.112 1.536-3.504 3.6-4.176 6.192h-23.76v-62.64h67.248v21.6z" fill="#fff"/><path d="M16.029 91.773c.217-.338.516-.611.897-.819s.828-.312 1.339-.312c.598 0 1.14.152 1.625.455s.867.737 1.144 1.3c.286.563.429 1.218.429 1.963s-.143 1.404-.429 1.976c-.277.563-.659 1.001-1.144 1.313-.485.303-1.027.455-1.625.455-.503 0-.949-.104-1.339-.312-.381-.208-.68-.477-.897-.806v4.472h-2.223V90.746h2.223v1.027zm3.172 2.587c0-.555-.156-.988-.468-1.3-.303-.321-.68-.481-1.131-.481a1.52 1.52 0 0 0-1.131.481c-.303.321-.455.758-.455 1.313s.152.992.455 1.313a1.52 1.52 0 0 0 1.131.481 1.52 1.52 0 0 0 1.131-.481c.312-.329.468-.771.468-1.326zm-5.837 20c0-.745.139-1.4.416-1.963.286-.563.672-.997 1.157-1.3s1.027-.455 1.625-.455c.511 0 .958.104 1.339.312.39.208.689.481.897.819v-1.027h2.223V118h-2.223v-1.027c-.217.338-.52.611-.91.819-.381.208-.828.312-1.339.312-.589 0-1.127-.152-1.612-.455-.485-.312-.871-.75-1.157-1.313-.277-.572-.416-1.231-.416-1.976zm5.434.013c0-.555-.156-.992-.468-1.313-.303-.321-.676-.481-1.118-.481a1.52 1.52 0 0 0-1.131.481c-.303.312-.455.745-.455 1.3s.152.997.455 1.326a1.52 1.52 0 0 0 1.131.481c.442 0 .815-.16 1.118-.481.312-.321.468-.758.468-1.313zM18.239 138l-2.21-3.042V138h-2.223v-9.62h2.223v5.317l2.197-2.951h2.743l-3.016 3.64L20.995 138h-2.756zm-1.131 20.104c-.711 0-1.352-.152-1.924-.455-.563-.303-1.01-.737-1.339-1.3-.321-.563-.481-1.222-.481-1.976 0-.745.165-1.4.494-1.963.329-.572.78-1.01 1.352-1.313s1.213-.455 1.924-.455 1.352.152 1.924.455 1.023.741 1.352 1.313c.329.563.494 1.218.494 1.963s-.169 1.404-.507 1.976a3.34 3.34 0 0 1-1.365 1.3c-.572.303-1.213.455-1.924.455zm0-1.924c.425 0 .784-.156 1.079-.468.303-.312.455-.758.455-1.339s-.147-1.027-.442-1.339c-.286-.312-.641-.468-1.066-.468a1.4 1.4 0 0 0-1.079.468c-.286.303-.429.75-.429 1.339 0 .581.139 1.027.416 1.339.286.312.641.468 1.066.468zm-3.744 18.18c0-.745.139-1.4.416-1.963.286-.563.672-.997 1.157-1.3s1.027-.455 1.625-.455c.477 0 .91.1 1.3.299.399.199.711.468.936.806v-3.367h2.223V178h-2.223v-1.04c-.208.347-.507.624-.897.832-.381.208-.828.312-1.339.312-.598 0-1.14-.152-1.625-.455-.485-.312-.871-.75-1.157-1.313-.277-.572-.416-1.231-.416-1.976zm5.434.013c0-.555-.156-.992-.468-1.313-.303-.321-.676-.481-1.118-.481a1.52 1.52 0 0 0-1.131.481c-.303.312-.455.745-.455 1.3s.152.997.455 1.326a1.52 1.52 0 0 0 1.131.481c.442 0 .815-.16 1.118-.481.312-.321.468-.758.468-1.313zm1.846 19.883a5.67 5.67 0 0 1-.039.65h-5.031c.035.451.178.797.429 1.04.26.234.576.351.949.351.555 0 .94-.234 1.157-.702h2.366a3.2 3.2 0 0 1-.663 1.287c-.312.381-.706.68-1.183.897s-1.01.325-1.599.325c-.711 0-1.343-.152-1.898-.455s-.988-.737-1.3-1.3-.468-1.222-.468-1.976.152-1.413.455-1.976c.312-.563.745-.997 1.3-1.3s1.192-.455 1.911-.455c.702 0 1.326.147 1.872.442s.971.715 1.274 1.261c.312.546.468 1.183.468 1.911zm-2.275-.585c0-.381-.13-.685-.39-.91s-.585-.338-.975-.338c-.373 0-.689.108-.949.325-.251.217-.407.524-.468.923h2.782z" fill="#6950ff"/></svg>