<svg width="540" height="420" viewBox="0 0 540 420" fill="none" xmlns="http://www.w3.org/2000/svg">
<rect width="540" height="420" rx="5" fill="#3F2DAA"/>
<rect x="114" y="98" width="423" height="322" rx="5" fill="#4B31E8"/>
<circle cx="62.5" cy="363.5" r="7.5" fill="#5E44FF"/>
<circle cx="10.5" cy="386.5" r="7.5" fill="#5E44FF"/>
<circle cx="10.5" cy="363.5" r="7.5" fill="#5E44FF"/>
<circle cx="36.5" cy="386.5" r="7.5" fill="#5E44FF"/>
<circle cx="36.5" cy="363.5" r="7.5" fill="#5E44FF"/>
<circle cx="36.5" cy="409.5" r="7.5" fill="#5E44FF"/>
<circle cx="10.5" cy="409.5" r="7.5" fill="#5E44FF"/>
<circle cx="62.5" cy="409.5" r="7.5" fill="#5E44FF"/>
<circle cx="62.5" cy="386.5" r="7.5" fill="#5E44FF"/>
<circle cx="529.5" cy="56.5" r="7.5" fill="#5E44FF"/>
<circle cx="477.5" cy="56.5" r="7.5" fill="#5E44FF"/>
<circle cx="503.5" cy="56.5" r="7.5" fill="#5E44FF"/>
<circle cx="477.5" cy="10.5" r="7.5" fill="#5E44FF"/>
<circle cx="477.5" cy="33.5" r="7.5" fill="#5E44FF"/>
<circle cx="503.5" cy="10.5" r="7.5" fill="#5E44FF"/>
<circle cx="503.5" cy="33.5" r="7.5" fill="#5E44FF"/>
<circle cx="529.5" cy="10.5" r="7.5" fill="#5E44FF"/>
<circle cx="529.5" cy="33.5" r="7.5" fill="#5E44FF"/>
<path d="M152.55 210C153.633 210 154.6 210.225 155.45 210.675C156.317 211.125 156.992 211.792 157.475 212.675C157.975 213.558 158.225 214.625 158.225 215.875V224H155.4V216.3C155.4 215.067 155.092 214.125 154.475 213.475C153.858 212.808 153.017 212.475 151.95 212.475C150.883 212.475 150.033 212.808 149.4 213.475C148.783 214.125 148.475 215.067 148.475 216.3V224H145.65V216.3C145.65 215.067 145.342 214.125 144.725 213.475C144.108 212.808 143.267 212.475 142.2 212.475C141.133 212.475 140.283 212.808 139.65 213.475C139.033 214.125 138.725 215.067 138.725 216.3V224H135.875V210.225H138.725V211.8C139.192 211.233 139.783 210.792 140.5 210.475C141.217 210.158 141.983 210 142.8 210C143.9 210 144.883 210.233 145.75 210.7C146.617 211.167 147.283 211.842 147.75 212.725C148.167 211.892 148.817 211.233 149.7 210.75C150.583 210.25 151.533 210 152.55 210ZM174.477 216.775C174.477 217.292 174.443 217.758 174.377 218.175H163.852C163.935 219.275 164.343 220.158 165.077 220.825C165.81 221.492 166.71 221.825 167.777 221.825C169.31 221.825 170.393 221.183 171.027 219.9H174.102C173.685 221.167 172.927 222.208 171.827 223.025C170.743 223.825 169.393 224.225 167.777 224.225C166.46 224.225 165.277 223.933 164.227 223.35C163.193 222.75 162.377 221.917 161.777 220.85C161.193 219.767 160.902 218.517 160.902 217.1C160.902 215.683 161.185 214.442 161.752 213.375C162.335 212.292 163.143 211.458 164.177 210.875C165.227 210.292 166.427 210 167.777 210C169.077 210 170.235 210.283 171.252 210.85C172.268 211.417 173.06 212.217 173.627 213.25C174.193 214.267 174.477 215.442 174.477 216.775ZM171.502 215.875C171.485 214.825 171.11 213.983 170.377 213.35C169.643 212.717 168.735 212.4 167.652 212.4C166.668 212.4 165.827 212.717 165.127 213.35C164.427 213.967 164.01 214.808 163.877 215.875H171.502ZM184.231 210C185.315 210 186.281 210.225 187.131 210.675C187.998 211.125 188.673 211.792 189.156 212.675C189.64 213.558 189.881 214.625 189.881 215.875V224H187.056V216.3C187.056 215.067 186.748 214.125 186.131 213.475C185.515 212.808 184.673 212.475 183.606 212.475C182.54 212.475 181.69 212.808 181.056 213.475C180.44 214.125 180.131 215.067 180.131 216.3V224H177.281V210.225H180.131V211.8C180.598 211.233 181.19 210.792 181.906 210.475C182.64 210.158 183.415 210 184.231 210ZM206.142 216.775C206.142 217.292 206.108 217.758 206.042 218.175H195.517C195.6 219.275 196.008 220.158 196.742 220.825C197.475 221.492 198.375 221.825 199.442 221.825C200.975 221.825 202.058 221.183 202.692 219.9H205.767C205.35 221.167 204.592 222.208 203.492 223.025C202.408 223.825 201.058 224.225 199.442 224.225C198.125 224.225 196.942 223.933 195.892 223.35C194.858 222.75 194.042 221.917 193.442 220.85C192.858 219.767 192.567 218.517 192.567 217.1C192.567 215.683 192.85 214.442 193.417 213.375C194 212.292 194.808 211.458 195.842 210.875C196.892 210.292 198.092 210 199.442 210C200.742 210 201.9 210.283 202.917 210.85C203.933 211.417 204.725 212.217 205.292 213.25C205.858 214.267 206.142 215.442 206.142 216.775ZM203.167 215.875C203.15 214.825 202.775 213.983 202.042 213.35C201.308 212.717 200.4 212.4 199.317 212.4C198.333 212.4 197.492 212.717 196.792 213.35C196.092 213.967 195.675 214.808 195.542 215.875H203.167ZM225.621 210C226.705 210 227.671 210.225 228.521 210.675C229.388 211.125 230.063 211.792 230.546 212.675C231.046 213.558 231.296 214.625 231.296 215.875V224H228.471V216.3C228.471 215.067 228.163 214.125 227.546 213.475C226.93 212.808 226.088 212.475 225.021 212.475C223.955 212.475 223.105 212.808 222.471 213.475C221.855 214.125 221.546 215.067 221.546 216.3V224H218.721V216.3C218.721 215.067 218.413 214.125 217.796 213.475C217.18 212.808 216.338 212.475 215.271 212.475C214.205 212.475 213.355 212.808 212.721 213.475C212.105 214.125 211.796 215.067 211.796 216.3V224H208.946V210.225H211.796V211.8C212.263 211.233 212.855 210.792 213.571 210.475C214.288 210.158 215.055 210 215.871 210C216.971 210 217.955 210.233 218.821 210.7C219.688 211.167 220.355 211.842 220.821 212.725C221.238 211.892 221.888 211.233 222.771 210.75C223.655 210.25 224.605 210 225.621 210ZM247.398 210.225V224H244.548V222.375C244.098 222.942 243.506 223.392 242.773 223.725C242.056 224.042 241.29 224.2 240.473 224.2C239.39 224.2 238.415 223.975 237.548 223.525C236.698 223.075 236.023 222.408 235.523 221.525C235.04 220.642 234.798 219.575 234.798 218.325V210.225H237.623V217.9C237.623 219.133 237.931 220.083 238.548 220.75C239.165 221.4 240.006 221.725 241.073 221.725C242.14 221.725 242.981 221.4 243.598 220.75C244.231 220.083 244.548 219.133 244.548 217.9V210.225H247.398ZM256.608 217.125L262.958 224H259.108L254.008 218.075V224H251.158V205.5H254.008V216.25L259.008 210.225H262.958L256.608 217.125ZM264.051 217.05C264.051 215.667 264.334 214.442 264.901 213.375C265.484 212.308 266.268 211.483 267.251 210.9C268.251 210.3 269.351 210 270.551 210C271.634 210 272.576 210.217 273.376 210.65C274.193 211.067 274.843 211.592 275.326 212.225V210.225H278.201V224H275.326V221.95C274.843 222.6 274.184 223.142 273.351 223.575C272.518 224.008 271.568 224.225 270.501 224.225C269.318 224.225 268.234 223.925 267.251 223.325C266.268 222.708 265.484 221.858 264.901 220.775C264.334 219.675 264.051 218.433 264.051 217.05ZM275.326 217.1C275.326 216.15 275.126 215.325 274.726 214.625C274.343 213.925 273.834 213.392 273.201 213.025C272.568 212.658 271.884 212.475 271.151 212.475C270.418 212.475 269.734 212.658 269.101 213.025C268.468 213.375 267.951 213.9 267.551 214.6C267.168 215.283 266.976 216.1 266.976 217.05C266.976 218 267.168 218.833 267.551 219.55C267.951 220.267 268.468 220.817 269.101 221.2C269.751 221.567 270.434 221.75 271.151 221.75C271.884 221.75 272.568 221.567 273.201 221.2C273.834 220.833 274.343 220.3 274.726 219.6C275.126 218.883 275.326 218.05 275.326 217.1ZM288.894 210C289.978 210 290.944 210.225 291.794 210.675C292.661 211.125 293.336 211.792 293.819 212.675C294.303 213.558 294.544 214.625 294.544 215.875V224H291.719V216.3C291.719 215.067 291.411 214.125 290.794 213.475C290.178 212.808 289.336 212.475 288.269 212.475C287.203 212.475 286.353 212.808 285.719 213.475C285.103 214.125 284.794 215.067 284.794 216.3V224H281.944V210.225H284.794V211.8C285.261 211.233 285.853 210.792 286.569 210.475C287.303 210.158 288.078 210 288.894 210ZM303.724 217.05C303.724 215.667 304.007 214.442 304.574 213.375C305.157 212.308 305.94 211.483 306.924 210.9C307.924 210.3 309.032 210 310.249 210C311.149 210 312.032 210.2 312.899 210.6C313.782 210.983 314.482 211.5 314.999 212.15V205.5H317.874V224H314.999V221.925C314.532 222.592 313.882 223.142 313.049 223.575C312.232 224.008 311.29 224.225 310.224 224.225C309.024 224.225 307.924 223.925 306.924 223.325C305.94 222.708 305.157 221.858 304.574 220.775C304.007 219.675 303.724 218.433 303.724 217.05ZM314.999 217.1C314.999 216.15 314.799 215.325 314.399 214.625C314.015 213.925 313.507 213.392 312.874 213.025C312.24 212.658 311.557 212.475 310.824 212.475C310.09 212.475 309.407 212.658 308.774 213.025C308.14 213.375 307.624 213.9 307.224 214.6C306.84 215.283 306.649 216.1 306.649 217.05C306.649 218 306.84 218.833 307.224 219.55C307.624 220.267 308.14 220.817 308.774 221.2C309.424 221.567 310.107 221.75 310.824 221.75C311.557 221.75 312.24 221.567 312.874 221.2C313.507 220.833 314.015 220.3 314.399 219.6C314.799 218.883 314.999 218.05 314.999 217.1ZM323.067 208.4C322.551 208.4 322.117 208.225 321.767 207.875C321.417 207.525 321.242 207.092 321.242 206.575C321.242 206.058 321.417 205.625 321.767 205.275C322.117 204.925 322.551 204.75 323.067 204.75C323.567 204.75 323.992 204.925 324.342 205.275C324.692 205.625 324.867 206.058 324.867 206.575C324.867 207.092 324.692 207.525 324.342 207.875C323.992 208.225 323.567 208.4 323.067 208.4ZM324.467 210.225V224H321.617V210.225H324.467ZM331.059 212.225C331.476 211.525 332.026 210.983 332.709 210.6C333.409 210.2 334.234 210 335.184 210V212.95H334.459C333.342 212.95 332.492 213.233 331.909 213.8C331.342 214.367 331.059 215.35 331.059 216.75V224H328.209V210.225H331.059V212.225ZM350.429 216.775C350.429 217.292 350.395 217.758 350.329 218.175H339.804C339.887 219.275 340.295 220.158 341.029 220.825C341.762 221.492 342.662 221.825 343.729 221.825C345.262 221.825 346.345 221.183 346.979 219.9H350.054C349.637 221.167 348.879 222.208 347.779 223.025C346.695 223.825 345.345 224.225 343.729 224.225C342.412 224.225 341.229 223.933 340.179 223.35C339.145 222.75 338.329 221.917 337.729 220.85C337.145 219.767 336.854 218.517 336.854 217.1C336.854 215.683 337.137 214.442 337.704 213.375C338.287 212.292 339.095 211.458 340.129 210.875C341.179 210.292 342.379 210 343.729 210C345.029 210 346.187 210.283 347.204 210.85C348.22 211.417 349.012 212.217 349.579 213.25C350.145 214.267 350.429 215.442 350.429 216.775ZM347.454 215.875C347.437 214.825 347.062 213.983 346.329 213.35C345.595 212.717 344.687 212.4 343.604 212.4C342.62 212.4 341.779 212.717 341.079 213.35C340.379 213.967 339.962 214.808 339.829 215.875H347.454ZM358.683 217.125L365.033 224H361.183L356.083 218.075V224H353.233V205.5H356.083V216.25L361.083 210.225H365.033L358.683 217.125ZM370.401 212.55V220.175C370.401 220.692 370.518 221.067 370.751 221.3C371.001 221.517 371.418 221.625 372.001 221.625H373.751V224H371.501C370.218 224 369.235 223.7 368.551 223.1C367.868 222.5 367.526 221.525 367.526 220.175V212.55H365.901V210.225H367.526V206.8H370.401V210.225H373.751V212.55H370.401ZM382.353 224.225C381.053 224.225 379.878 223.933 378.828 223.35C377.778 222.75 376.953 221.917 376.353 220.85C375.753 219.767 375.453 218.517 375.453 217.1C375.453 215.7 375.761 214.458 376.378 213.375C376.995 212.292 377.836 211.458 378.903 210.875C379.97 210.292 381.161 210 382.478 210C383.795 210 384.986 210.292 386.053 210.875C387.12 211.458 387.961 212.292 388.578 213.375C389.195 214.458 389.503 215.7 389.503 217.1C389.503 218.5 389.186 219.742 388.553 220.825C387.92 221.908 387.053 222.75 385.953 223.35C384.87 223.933 383.67 224.225 382.353 224.225ZM382.353 221.75C383.086 221.75 383.77 221.575 384.403 221.225C385.053 220.875 385.578 220.35 385.978 219.65C386.378 218.95 386.578 218.1 386.578 217.1C386.578 216.1 386.386 215.258 386.003 214.575C385.62 213.875 385.111 213.35 384.478 213C383.845 212.65 383.161 212.475 382.428 212.475C381.695 212.475 381.011 212.65 380.378 213C379.761 213.35 379.27 213.875 378.903 214.575C378.536 215.258 378.353 216.1 378.353 217.1C378.353 218.583 378.728 219.733 379.478 220.55C380.245 221.35 381.203 221.75 382.353 221.75ZM395.17 212.225C395.587 211.525 396.137 210.983 396.82 210.6C397.52 210.2 398.345 210 399.295 210V212.95H398.57C397.454 212.95 396.604 213.233 396.02 213.8C395.454 214.367 395.17 215.35 395.17 216.75V224H392.32V210.225H395.17V212.225ZM403.365 208.4C402.848 208.4 402.415 208.225 402.065 207.875C401.715 207.525 401.54 207.092 401.54 206.575C401.54 206.058 401.715 205.625 402.065 205.275C402.415 204.925 402.848 204.75 403.365 204.75C403.865 204.75 404.29 204.925 404.64 205.275C404.99 205.625 405.165 206.058 405.165 206.575C405.165 207.092 404.99 207.525 404.64 207.875C404.29 208.225 403.865 208.4 403.365 208.4ZM404.765 210.225V224H401.915V210.225H404.765ZM139.2 250.55V258.175C139.2 258.692 139.317 259.067 139.55 259.3C139.8 259.517 140.217 259.625 140.8 259.625H142.55V262H140.3C139.017 262 138.033 261.7 137.35 261.1C136.667 260.5 136.325 259.525 136.325 258.175V250.55H134.7V248.225H136.325V244.8H139.2V248.225H142.55V250.55H139.2ZM157.802 254.775C157.802 255.292 157.768 255.758 157.702 256.175H147.177C147.26 257.275 147.668 258.158 148.402 258.825C149.135 259.492 150.035 259.825 151.102 259.825C152.635 259.825 153.718 259.183 154.352 257.9H157.427C157.01 259.167 156.252 260.208 155.152 261.025C154.068 261.825 152.718 262.225 151.102 262.225C149.785 262.225 148.602 261.933 147.552 261.35C146.518 260.75 145.702 259.917 145.102 258.85C144.518 257.767 144.227 256.517 144.227 255.1C144.227 253.683 144.51 252.442 145.077 251.375C145.66 250.292 146.468 249.458 147.502 248.875C148.552 248.292 149.752 248 151.102 248C152.402 248 153.56 248.283 154.577 248.85C155.593 249.417 156.385 250.217 156.952 251.25C157.518 252.267 157.802 253.442 157.802 254.775ZM154.827 253.875C154.81 252.825 154.435 251.983 153.702 251.35C152.968 250.717 152.06 250.4 150.977 250.4C149.993 250.4 149.152 250.717 148.452 251.35C147.752 251.967 147.335 252.808 147.202 253.875H154.827ZM163.456 250.225C163.873 249.525 164.423 248.983 165.106 248.6C165.806 248.2 166.631 248 167.581 248V250.95H166.856C165.74 250.95 164.89 251.233 164.306 251.8C163.74 252.367 163.456 253.35 163.456 254.75V262H160.606V248.225H163.456V250.225ZM175.201 262.225C174.118 262.225 173.143 262.033 172.276 261.65C171.426 261.25 170.751 260.717 170.251 260.05C169.751 259.367 169.485 258.608 169.451 257.775H172.401C172.451 258.358 172.726 258.85 173.226 259.25C173.743 259.633 174.385 259.825 175.151 259.825C175.951 259.825 176.568 259.675 177.001 259.375C177.451 259.058 177.676 258.658 177.676 258.175C177.676 257.658 177.426 257.275 176.926 257.025C176.443 256.775 175.668 256.5 174.601 256.2C173.568 255.917 172.726 255.642 172.076 255.375C171.426 255.108 170.86 254.7 170.376 254.15C169.91 253.6 169.676 252.875 169.676 251.975C169.676 251.242 169.893 250.575 170.326 249.975C170.76 249.358 171.376 248.875 172.176 248.525C172.993 248.175 173.926 248 174.976 248C176.543 248 177.801 248.4 178.751 249.2C179.718 249.983 180.235 251.058 180.301 252.425H177.451C177.401 251.808 177.151 251.317 176.701 250.95C176.251 250.583 175.643 250.4 174.876 250.4C174.126 250.4 173.551 250.542 173.151 250.825C172.751 251.108 172.551 251.483 172.551 251.95C172.551 252.317 172.685 252.625 172.951 252.875C173.218 253.125 173.543 253.325 173.926 253.475C174.31 253.608 174.876 253.783 175.626 254C176.626 254.267 177.443 254.542 178.076 254.825C178.726 255.092 179.285 255.492 179.751 256.025C180.218 256.558 180.46 257.267 180.476 258.15C180.476 258.933 180.26 259.633 179.826 260.25C179.393 260.867 178.776 261.35 177.976 261.7C177.193 262.05 176.268 262.225 175.201 262.225ZM196.181 254.775C196.181 255.292 196.147 255.758 196.081 256.175H185.556C185.639 257.275 186.047 258.158 186.781 258.825C187.514 259.492 188.414 259.825 189.481 259.825C191.014 259.825 192.097 259.183 192.731 257.9H195.806C195.389 259.167 194.631 260.208 193.531 261.025C192.447 261.825 191.097 262.225 189.481 262.225C188.164 262.225 186.981 261.933 185.931 261.35C184.897 260.75 184.081 259.917 183.481 258.85C182.897 257.767 182.606 256.517 182.606 255.1C182.606 253.683 182.889 252.442 183.456 251.375C184.039 250.292 184.847 249.458 185.881 248.875C186.931 248.292 188.131 248 189.481 248C190.781 248 191.939 248.283 192.956 248.85C193.972 249.417 194.764 250.217 195.331 251.25C195.897 252.267 196.181 253.442 196.181 254.775ZM193.206 253.875C193.189 252.825 192.814 251.983 192.081 251.35C191.347 250.717 190.439 250.4 189.356 250.4C188.372 250.4 187.531 250.717 186.831 251.35C186.131 251.967 185.714 252.808 185.581 253.875H193.206ZM215.66 248C216.744 248 217.71 248.225 218.56 248.675C219.427 249.125 220.102 249.792 220.585 250.675C221.085 251.558 221.335 252.625 221.335 253.875V262H218.51V254.3C218.51 253.067 218.202 252.125 217.585 251.475C216.969 250.808 216.127 250.475 215.06 250.475C213.994 250.475 213.144 250.808 212.51 251.475C211.894 252.125 211.585 253.067 211.585 254.3V262H208.76V254.3C208.76 253.067 208.452 252.125 207.835 251.475C207.219 250.808 206.377 250.475 205.31 250.475C204.244 250.475 203.394 250.808 202.76 251.475C202.144 252.125 201.835 253.067 201.835 254.3V262H198.985V248.225H201.835V249.8C202.302 249.233 202.894 248.792 203.61 248.475C204.327 248.158 205.094 248 205.91 248C207.01 248 207.994 248.233 208.86 248.7C209.727 249.167 210.394 249.842 210.86 250.725C211.277 249.892 211.927 249.233 212.81 248.75C213.694 248.25 214.644 248 215.66 248ZM227.812 250.275C228.295 249.608 228.954 249.067 229.787 248.65C230.637 248.217 231.579 248 232.612 248C233.829 248 234.929 248.292 235.912 248.875C236.895 249.458 237.67 250.292 238.237 251.375C238.804 252.442 239.087 253.667 239.087 255.05C239.087 256.433 238.804 257.675 238.237 258.775C237.67 259.858 236.887 260.708 235.887 261.325C234.904 261.925 233.812 262.225 232.612 262.225C231.545 262.225 230.595 262.017 229.762 261.6C228.945 261.183 228.295 260.65 227.812 260V262H224.962V243.5H227.812V250.275ZM236.187 255.05C236.187 254.1 235.987 253.283 235.587 252.6C235.204 251.9 234.687 251.375 234.037 251.025C233.404 250.658 232.72 250.475 231.987 250.475C231.27 250.475 230.587 250.658 229.937 251.025C229.304 251.392 228.787 251.925 228.387 252.625C228.004 253.325 227.812 254.15 227.812 255.1C227.812 256.05 228.004 256.883 228.387 257.6C228.787 258.3 229.304 258.833 229.937 259.2C230.587 259.567 231.27 259.75 231.987 259.75C232.72 259.75 233.404 259.567 234.037 259.2C234.687 258.817 235.204 258.267 235.587 257.55C235.987 256.833 236.187 256 236.187 255.05ZM254.38 248.225V262H251.53V260.375C251.08 260.942 250.489 261.392 249.755 261.725C249.039 262.042 248.272 262.2 247.455 262.2C246.372 262.2 245.397 261.975 244.53 261.525C243.68 261.075 243.005 260.408 242.505 259.525C242.022 258.642 241.78 257.575 241.78 256.325V248.225H244.605V255.9C244.605 257.133 244.914 258.083 245.53 258.75C246.147 259.4 246.989 259.725 248.055 259.725C249.122 259.725 249.964 259.4 250.58 258.75C251.214 258.083 251.53 257.133 251.53 255.9V248.225H254.38ZM265.091 248C266.174 248 267.141 248.225 267.991 248.675C268.857 249.125 269.532 249.792 270.016 250.675C270.499 251.558 270.741 252.625 270.741 253.875V262H267.916V254.3C267.916 253.067 267.607 252.125 266.991 251.475C266.374 250.808 265.532 250.475 264.466 250.475C263.399 250.475 262.549 250.808 261.916 251.475C261.299 252.125 260.991 253.067 260.991 254.3V262H258.141V248.225H260.991V249.8C261.457 249.233 262.049 248.792 262.766 248.475C263.499 248.158 264.274 248 265.091 248ZM286.776 248.225L278.326 268.475H275.376L278.176 261.775L272.751 248.225H275.926L279.801 258.725L283.826 248.225H286.776ZM290.377 246.4C289.86 246.4 289.427 246.225 289.077 245.875C288.727 245.525 288.552 245.092 288.552 244.575C288.552 244.058 288.727 243.625 289.077 243.275C289.427 242.925 289.86 242.75 290.377 242.75C290.877 242.75 291.302 242.925 291.652 243.275C292.002 243.625 292.177 244.058 292.177 244.575C292.177 245.092 292.002 245.525 291.652 245.875C291.302 246.225 290.877 246.4 290.377 246.4ZM291.777 248.225V262H288.927V248.225H291.777ZM304.863 250.25C305.346 249.617 306.004 249.083 306.838 248.65C307.671 248.217 308.613 248 309.663 248C310.863 248 311.954 248.3 312.938 248.9C313.938 249.483 314.721 250.308 315.288 251.375C315.854 252.442 316.138 253.667 316.138 255.05C316.138 256.433 315.854 257.675 315.288 258.775C314.721 259.858 313.938 260.708 312.938 261.325C311.954 261.925 310.863 262.225 309.663 262.225C308.613 262.225 307.679 262.017 306.863 261.6C306.046 261.167 305.379 260.633 304.863 260V268.55H302.013V248.225H304.863V250.25ZM313.238 255.05C313.238 254.1 313.038 253.283 312.638 252.6C312.254 251.9 311.738 251.375 311.088 251.025C310.454 250.658 309.771 250.475 309.038 250.475C308.321 250.475 307.638 250.658 306.988 251.025C306.354 251.392 305.838 251.925 305.438 252.625C305.054 253.325 304.863 254.15 304.863 255.1C304.863 256.05 305.054 256.883 305.438 257.6C305.838 258.3 306.354 258.833 306.988 259.2C307.638 259.567 308.321 259.75 309.038 259.75C309.771 259.75 310.454 259.567 311.088 259.2C311.738 258.817 312.254 258.267 312.638 257.55C313.038 256.833 313.238 256 313.238 255.05ZM318.006 255.05C318.006 253.667 318.289 252.442 318.856 251.375C319.439 250.308 320.223 249.483 321.206 248.9C322.206 248.3 323.306 248 324.506 248C325.589 248 326.531 248.217 327.331 248.65C328.148 249.067 328.798 249.592 329.281 250.225V248.225H332.156V262H329.281V259.95C328.798 260.6 328.139 261.142 327.306 261.575C326.473 262.008 325.523 262.225 324.456 262.225C323.273 262.225 322.189 261.925 321.206 261.325C320.223 260.708 319.439 259.858 318.856 258.775C318.289 257.675 318.006 256.433 318.006 255.05ZM329.281 255.1C329.281 254.15 329.081 253.325 328.681 252.625C328.298 251.925 327.789 251.392 327.156 251.025C326.523 250.658 325.839 250.475 325.106 250.475C324.373 250.475 323.689 250.658 323.056 251.025C322.423 251.375 321.906 251.9 321.506 252.6C321.123 253.283 320.931 254.1 320.931 255.05C320.931 256 321.123 256.833 321.506 257.55C321.906 258.267 322.423 258.817 323.056 259.2C323.706 259.567 324.389 259.75 325.106 259.75C325.839 259.75 326.523 259.567 327.156 259.2C327.789 258.833 328.298 258.3 328.681 257.6C329.081 256.883 329.281 256.05 329.281 255.1ZM334.949 255.05C334.949 253.667 335.233 252.442 335.799 251.375C336.383 250.308 337.166 249.483 338.149 248.9C339.149 248.3 340.258 248 341.474 248C342.374 248 343.258 248.2 344.124 248.6C345.008 248.983 345.708 249.5 346.224 250.15V243.5H349.099V262H346.224V259.925C345.758 260.592 345.108 261.142 344.274 261.575C343.458 262.008 342.516 262.225 341.449 262.225C340.249 262.225 339.149 261.925 338.149 261.325C337.166 260.708 336.383 259.858 335.799 258.775C335.233 257.675 334.949 256.433 334.949 255.05ZM346.224 255.1C346.224 254.15 346.024 253.325 345.624 252.625C345.241 251.925 344.733 251.392 344.099 251.025C343.466 250.658 342.783 250.475 342.049 250.475C341.316 250.475 340.633 250.658 339.999 251.025C339.366 251.375 338.849 251.9 338.449 252.6C338.066 253.283 337.874 254.1 337.874 255.05C337.874 256 338.066 256.833 338.449 257.55C338.849 258.267 339.366 258.817 339.999 259.2C340.649 259.567 341.333 259.75 342.049 259.75C342.783 259.75 343.466 259.567 344.099 259.2C344.733 258.833 345.241 258.3 345.624 257.6C346.024 256.883 346.224 256.05 346.224 255.1ZM351.893 255.05C351.893 253.667 352.176 252.442 352.743 251.375C353.326 250.308 354.109 249.483 355.093 248.9C356.093 248.3 357.193 248 358.393 248C359.476 248 360.418 248.217 361.218 248.65C362.034 249.067 362.684 249.592 363.168 250.225V248.225H366.043V262H363.168V259.95C362.684 260.6 362.026 261.142 361.193 261.575C360.359 262.008 359.409 262.225 358.343 262.225C357.159 262.225 356.076 261.925 355.093 261.325C354.109 260.708 353.326 259.858 352.743 258.775C352.176 257.675 351.893 256.433 351.893 255.05ZM363.168 255.1C363.168 254.15 362.968 253.325 362.568 252.625C362.184 251.925 361.676 251.392 361.043 251.025C360.409 250.658 359.726 250.475 358.993 250.475C358.259 250.475 357.576 250.658 356.943 251.025C356.309 251.375 355.793 251.9 355.393 252.6C355.009 253.283 354.818 254.1 354.818 255.05C354.818 256 355.009 256.833 355.393 257.55C355.793 258.267 356.309 258.817 356.943 259.2C357.593 259.567 358.276 259.75 358.993 259.75C359.726 259.75 360.409 259.567 361.043 259.2C361.676 258.833 362.184 258.3 362.568 257.6C362.968 256.883 363.168 256.05 363.168 255.1ZM394.78 248.225L390.505 262H387.505L384.73 251.825L381.955 262H378.955L374.655 248.225H377.555L380.43 259.3L383.355 248.225H386.33L389.13 259.25L391.98 248.225H394.78ZM409.535 254.775C409.535 255.292 409.502 255.758 409.435 256.175H398.91C398.993 257.275 399.402 258.158 400.135 258.825C400.868 259.492 401.768 259.825 402.835 259.825C404.368 259.825 405.452 259.183 406.085 257.9H409.16C408.743 259.167 407.985 260.208 406.885 261.025C405.802 261.825 404.452 262.225 402.835 262.225C401.518 262.225 400.335 261.933 399.285 261.35C398.252 260.75 397.435 259.917 396.835 258.85C396.252 257.767 395.96 256.517 395.96 255.1C395.96 253.683 396.243 252.442 396.81 251.375C397.393 250.292 398.202 249.458 399.235 248.875C400.285 248.292 401.485 248 402.835 248C404.135 248 405.293 248.283 406.31 248.85C407.327 249.417 408.118 250.217 408.685 251.25C409.252 252.267 409.535 253.442 409.535 254.775ZM406.56 253.875C406.543 252.825 406.168 251.983 405.435 251.35C404.702 250.717 403.793 250.4 402.71 250.4C401.727 250.4 400.885 250.717 400.185 251.35C399.485 251.967 399.068 252.808 398.935 253.875H406.56ZM415.19 250.275C415.673 249.608 416.332 249.067 417.165 248.65C418.015 248.217 418.957 248 419.99 248C421.207 248 422.307 248.292 423.29 248.875C424.273 249.458 425.048 250.292 425.615 251.375C426.182 252.442 426.465 253.667 426.465 255.05C426.465 256.433 426.182 257.675 425.615 258.775C425.048 259.858 424.265 260.708 423.265 261.325C422.282 261.925 421.19 262.225 419.99 262.225C418.923 262.225 417.973 262.017 417.14 261.6C416.323 261.183 415.673 260.65 415.19 260V262H412.34V243.5H415.19V250.275ZM423.565 255.05C423.565 254.1 423.365 253.283 422.965 252.6C422.582 251.9 422.065 251.375 421.415 251.025C420.782 250.658 420.098 250.475 419.365 250.475C418.648 250.475 417.965 250.658 417.315 251.025C416.682 251.392 416.165 251.925 415.765 252.625C415.382 253.325 415.19 254.15 415.19 255.1C415.19 256.05 415.382 256.883 415.765 257.6C416.165 258.3 416.682 258.833 417.315 259.2C417.965 259.567 418.648 259.75 419.365 259.75C420.098 259.75 420.782 259.567 421.415 259.2C422.065 258.817 422.582 258.267 422.965 257.55C423.365 256.833 423.565 256 423.565 255.05ZM433.958 244.375C435.658 244.375 437.017 244.842 438.033 245.775C439.067 246.708 439.583 247.983 439.583 249.6C439.583 251.283 439.05 252.55 437.983 253.4C436.917 254.25 435.5 254.675 433.733 254.675L433.633 256.65H431.158L431.033 252.725H431.858C433.475 252.725 434.708 252.508 435.558 252.075C436.425 251.642 436.858 250.817 436.858 249.6C436.858 248.717 436.6 248.025 436.083 247.525C435.583 247.025 434.883 246.775 433.983 246.775C433.083 246.775 432.375 247.017 431.858 247.5C431.342 247.983 431.083 248.658 431.083 249.525H428.408C428.408 248.525 428.633 247.633 429.083 246.85C429.533 246.067 430.175 245.458 431.008 245.025C431.858 244.592 432.842 244.375 433.958 244.375ZM432.358 262.175C431.842 262.175 431.408 262 431.058 261.65C430.708 261.3 430.533 260.867 430.533 260.35C430.533 259.833 430.708 259.4 431.058 259.05C431.408 258.7 431.842 258.525 432.358 258.525C432.858 258.525 433.283 258.7 433.633 259.05C433.983 259.4 434.158 259.833 434.158 260.35C434.158 260.867 433.983 261.3 433.633 261.65C433.283 262 432.858 262.175 432.358 262.175Z" fill="white"/>
<path d="M145.7 132.728C148.364 132.728 150.692 133.256 152.684 134.312C154.676 135.368 156.212 136.856 157.292 138.776C158.396 140.672 158.948 142.868 158.948 145.364C158.948 147.836 158.396 150.032 157.292 151.952C156.212 153.872 154.664 155.36 152.648 156.416C150.656 157.472 148.34 158 145.7 158H136.232V132.728H145.7ZM145.304 152.672C147.632 152.672 149.444 152.036 150.74 150.764C152.036 149.492 152.684 147.692 152.684 145.364C152.684 143.036 152.036 141.224 150.74 139.928C149.444 138.632 147.632 137.984 145.304 137.984H142.388V152.672H145.304ZM165.484 135.824C164.404 135.824 163.516 135.512 162.82 134.888C162.148 134.24 161.812 133.448 161.812 132.512C161.812 131.552 162.148 130.76 162.82 130.136C163.516 129.488 164.404 129.164 165.484 129.164C166.54 129.164 167.404 129.488 168.076 130.136C168.772 130.76 169.12 131.552 169.12 132.512C169.12 133.448 168.772 134.24 168.076 134.888C167.404 135.512 166.54 135.824 165.484 135.824ZM168.544 137.912V158H162.388V137.912H168.544ZM179.161 141.26C179.881 140.156 180.781 139.292 181.861 138.668C182.941 138.02 184.141 137.696 185.461 137.696V144.212H183.769C182.233 144.212 181.081 144.548 180.313 145.22C179.545 145.868 179.161 147.02 179.161 148.676V158H173.005V137.912H179.161V141.26ZM196.576 158.288C194.824 158.288 193.264 157.988 191.896 157.388C190.528 156.788 189.448 155.972 188.656 154.94C187.864 153.884 187.42 152.708 187.324 151.412H193.408C193.48 152.108 193.804 152.672 194.38 153.104C194.956 153.536 195.664 153.752 196.504 153.752C197.272 153.752 197.86 153.608 198.268 153.32C198.7 153.008 198.916 152.612 198.916 152.132C198.916 151.556 198.616 151.136 198.016 150.872C197.416 150.584 196.444 150.272 195.1 149.936C193.66 149.6 192.46 149.252 191.5 148.892C190.54 148.508 189.712 147.92 189.016 147.128C188.32 146.312 187.972 145.22 187.972 143.852C187.972 142.7 188.284 141.656 188.908 140.72C189.556 139.76 190.492 139.004 191.716 138.452C192.964 137.9 194.44 137.624 196.144 137.624C198.664 137.624 200.644 138.248 202.084 139.496C203.548 140.744 204.388 142.4 204.604 144.464H198.916C198.82 143.768 198.508 143.216 197.98 142.808C197.476 142.4 196.804 142.196 195.964 142.196C195.244 142.196 194.692 142.34 194.308 142.628C193.924 142.892 193.732 143.264 193.732 143.744C193.732 144.32 194.032 144.752 194.632 145.04C195.256 145.328 196.216 145.616 197.512 145.904C199 146.288 200.212 146.672 201.148 147.056C202.084 147.416 202.9 148.016 203.596 148.856C204.316 149.672 204.688 150.776 204.712 152.168C204.712 153.344 204.376 154.4 203.704 155.336C203.056 156.248 202.108 156.968 200.86 157.496C199.636 158.024 198.208 158.288 196.576 158.288ZM208.082 139.136C208.178 136.568 209.018 134.588 210.602 133.196C212.186 131.804 214.334 131.108 217.046 131.108C218.846 131.108 220.382 131.42 221.654 132.044C222.95 132.668 223.922 133.52 224.57 134.6C225.242 135.68 225.578 136.892 225.578 138.236C225.578 139.82 225.182 141.116 224.39 142.124C223.598 143.108 222.674 143.78 221.618 144.14V144.284C222.986 144.74 224.066 145.496 224.858 146.552C225.65 147.608 226.046 148.964 226.046 150.62C226.046 152.108 225.698 153.428 225.002 154.58C224.33 155.708 223.334 156.596 222.014 157.244C220.718 157.892 219.17 158.216 217.37 158.216C214.49 158.216 212.186 157.508 210.458 156.092C208.754 154.676 207.854 152.54 207.758 149.684H213.734C213.758 150.74 214.058 151.58 214.634 152.204C215.21 152.804 216.05 153.104 217.154 153.104C218.09 153.104 218.81 152.84 219.314 152.312C219.842 151.76 220.106 151.04 220.106 150.152C220.106 149 219.734 148.172 218.99 147.668C218.27 147.14 217.106 146.876 215.498 146.876H214.346V141.872H215.498C216.722 141.872 217.706 141.668 218.45 141.26C219.218 140.828 219.602 140.072 219.602 138.992C219.602 138.128 219.362 137.456 218.882 136.976C218.402 136.496 217.742 136.256 216.902 136.256C215.99 136.256 215.306 136.532 214.85 137.084C214.418 137.636 214.166 138.32 214.094 139.136H208.082ZM229.051 147.92C229.051 145.856 229.435 144.044 230.203 142.484C230.995 140.924 232.063 139.724 233.407 138.884C234.751 138.044 236.251 137.624 237.907 137.624C239.323 137.624 240.559 137.912 241.615 138.488C242.695 139.064 243.523 139.82 244.099 140.756V137.912H250.255V158H244.099V155.156C243.499 156.092 242.659 156.848 241.579 157.424C240.523 158 239.287 158.288 237.871 158.288C236.239 158.288 234.751 157.868 233.407 157.028C232.063 156.164 230.995 154.952 230.203 153.392C229.435 151.808 229.051 149.984 229.051 147.92ZM244.099 147.956C244.099 146.42 243.667 145.208 242.803 144.32C241.963 143.432 240.931 142.988 239.707 142.988C238.483 142.988 237.439 143.432 236.575 144.32C235.735 145.184 235.315 146.384 235.315 147.92C235.315 149.456 235.735 150.68 236.575 151.592C237.439 152.48 238.483 152.924 239.707 152.924C240.931 152.924 241.963 152.48 242.803 151.592C243.667 150.704 244.099 149.492 244.099 147.956ZM260.865 141.26C261.585 140.156 262.485 139.292 263.565 138.668C264.645 138.02 265.845 137.696 267.165 137.696V144.212H265.473C263.937 144.212 262.785 144.548 262.017 145.22C261.249 145.868 260.865 147.02 260.865 148.676V158H254.709V137.912H260.865V141.26ZM268.883 147.956C268.883 145.868 269.303 144.044 270.143 142.484C271.007 140.924 272.195 139.724 273.707 138.884C275.243 138.044 276.995 137.624 278.963 137.624C281.483 137.624 283.583 138.284 285.263 139.604C286.967 140.924 288.083 142.784 288.611 145.184H282.059C281.507 143.648 280.439 142.88 278.855 142.88C277.727 142.88 276.827 143.324 276.155 144.212C275.483 145.076 275.147 146.324 275.147 147.956C275.147 149.588 275.483 150.848 276.155 151.736C276.827 152.6 277.727 153.032 278.855 153.032C280.439 153.032 281.507 152.264 282.059 150.728H288.611C288.083 153.08 286.967 154.928 285.263 156.272C283.559 157.616 281.459 158.288 278.963 158.288C276.995 158.288 275.243 157.868 273.707 157.028C272.195 156.188 271.007 154.988 270.143 153.428C269.303 151.868 268.883 150.044 268.883 147.956ZM304.252 137.696C306.556 137.696 308.404 138.464 309.796 140C311.188 141.512 311.884 143.6 311.884 146.264V158H305.764V147.092C305.764 145.748 305.416 144.704 304.72 143.96C304.024 143.216 303.088 142.844 301.912 142.844C300.736 142.844 299.8 143.216 299.104 143.96C298.408 144.704 298.06 145.748 298.06 147.092V158H291.904V131.36H298.06V140.612C298.684 139.724 299.536 139.016 300.616 138.488C301.696 137.96 302.908 137.696 304.252 137.696Z" fill="white"/>
<path d="M16.029 91.773C16.2457 91.435 16.5447 91.162 16.926 90.954C17.3073 90.746 17.7537 90.642 18.265 90.642C18.863 90.642 19.4047 90.7937 19.89 91.097C20.3753 91.4003 20.7567 91.8337 21.034 92.397C21.32 92.9603 21.463 93.6147 21.463 94.36C21.463 95.1053 21.32 95.764 21.034 96.336C20.7567 96.8993 20.3753 97.337 19.89 97.649C19.4047 97.9523 18.863 98.104 18.265 98.104C17.7623 98.104 17.316 98 16.926 97.792C16.5447 97.584 16.2457 97.3153 16.029 96.986V101.458H13.806V90.746H16.029V91.773ZM19.201 94.36C19.201 93.8053 19.045 93.372 18.733 93.06C18.4297 92.7393 18.0527 92.579 17.602 92.579C17.16 92.579 16.783 92.7393 16.471 93.06C16.1677 93.3807 16.016 93.8183 16.016 94.373C16.016 94.9277 16.1677 95.3653 16.471 95.686C16.783 96.0067 17.16 96.167 17.602 96.167C18.044 96.167 18.421 96.0067 18.733 95.686C19.045 95.3567 19.201 94.9147 19.201 94.36ZM13.364 114.36C13.364 113.615 13.5027 112.96 13.78 112.397C14.066 111.834 14.4517 111.4 14.937 111.097C15.4223 110.794 15.964 110.642 16.562 110.642C17.0733 110.642 17.5197 110.746 17.901 110.954C18.291 111.162 18.59 111.435 18.798 111.773V110.746H21.021V118H18.798V116.973C18.5813 117.311 18.278 117.584 17.888 117.792C17.5067 118 17.0603 118.104 16.549 118.104C15.9597 118.104 15.4223 117.952 14.937 117.649C14.4517 117.337 14.066 116.899 13.78 116.336C13.5027 115.764 13.364 115.105 13.364 114.36ZM18.798 114.373C18.798 113.818 18.642 113.381 18.33 113.06C18.0267 112.739 17.654 112.579 17.212 112.579C16.77 112.579 16.393 112.739 16.081 113.06C15.7777 113.372 15.626 113.805 15.626 114.36C15.626 114.915 15.7777 115.357 16.081 115.686C16.393 116.007 16.77 116.167 17.212 116.167C17.654 116.167 18.0267 116.007 18.33 115.686C18.642 115.365 18.798 114.928 18.798 114.373ZM18.239 138L16.029 134.958V138H13.806V128.38H16.029V133.697L18.226 130.746H20.969L17.953 134.386L20.995 138H18.239ZM17.108 158.104C16.3973 158.104 15.756 157.952 15.184 157.649C14.6207 157.346 14.1743 156.912 13.845 156.349C13.5243 155.786 13.364 155.127 13.364 154.373C13.364 153.628 13.5287 152.973 13.858 152.41C14.1873 151.838 14.638 151.4 15.21 151.097C15.782 150.794 16.4233 150.642 17.134 150.642C17.8447 150.642 18.486 150.794 19.058 151.097C19.63 151.4 20.0807 151.838 20.41 152.41C20.7393 152.973 20.904 153.628 20.904 154.373C20.904 155.118 20.735 155.777 20.397 156.349C20.0677 156.912 19.6127 157.346 19.032 157.649C18.46 157.952 17.8187 158.104 17.108 158.104ZM17.108 156.18C17.5327 156.18 17.8923 156.024 18.187 155.712C18.4903 155.4 18.642 154.954 18.642 154.373C18.642 153.792 18.4947 153.346 18.2 153.034C17.914 152.722 17.5587 152.566 17.134 152.566C16.7007 152.566 16.341 152.722 16.055 153.034C15.769 153.337 15.626 153.784 15.626 154.373C15.626 154.954 15.7647 155.4 16.042 155.712C16.328 156.024 16.6833 156.18 17.108 156.18ZM13.364 174.36C13.364 173.615 13.5027 172.96 13.78 172.397C14.066 171.834 14.4517 171.4 14.937 171.097C15.4223 170.794 15.964 170.642 16.562 170.642C17.0387 170.642 17.472 170.742 17.862 170.941C18.2607 171.14 18.5727 171.409 18.798 171.747V168.38H21.021V178H18.798V176.96C18.59 177.307 18.291 177.584 17.901 177.792C17.5197 178 17.0733 178.104 16.562 178.104C15.964 178.104 15.4223 177.952 14.937 177.649C14.4517 177.337 14.066 176.899 13.78 176.336C13.5027 175.764 13.364 175.105 13.364 174.36ZM18.798 174.373C18.798 173.818 18.642 173.381 18.33 173.06C18.0267 172.739 17.654 172.579 17.212 172.579C16.77 172.579 16.393 172.739 16.081 173.06C15.7777 173.372 15.626 173.805 15.626 174.36C15.626 174.915 15.7777 175.357 16.081 175.686C16.393 176.007 16.77 176.167 17.212 176.167C17.654 176.167 18.0267 176.007 18.33 175.686C18.642 175.365 18.798 174.928 18.798 174.373ZM20.644 194.256C20.644 194.464 20.631 194.681 20.605 194.906H15.574C15.6087 195.357 15.7517 195.703 16.003 195.946C16.263 196.18 16.5793 196.297 16.952 196.297C17.5067 196.297 17.8923 196.063 18.109 195.595H20.475C20.3537 196.072 20.1327 196.501 19.812 196.882C19.5 197.263 19.1057 197.562 18.629 197.779C18.1523 197.996 17.6193 198.104 17.03 198.104C16.3193 198.104 15.6867 197.952 15.132 197.649C14.5773 197.346 14.144 196.912 13.832 196.349C13.52 195.786 13.364 195.127 13.364 194.373C13.364 193.619 13.5157 192.96 13.819 192.397C14.131 191.834 14.5643 191.4 15.119 191.097C15.6737 190.794 16.3107 190.642 17.03 190.642C17.732 190.642 18.356 190.789 18.902 191.084C19.448 191.379 19.8727 191.799 20.176 192.345C20.488 192.891 20.644 193.528 20.644 194.256ZM18.369 193.671C18.369 193.29 18.239 192.986 17.979 192.761C17.719 192.536 17.394 192.423 17.004 192.423C16.6313 192.423 16.315 192.531 16.055 192.748C15.8037 192.965 15.6477 193.272 15.587 193.671H18.369Z" fill="#6950FF"/>
</svg>
